<svg width="632" height="128" viewBox="0 0 632 128" fill="none" xmlns="http://www.w3.org/2000/svg">
<path d="M122.898 41.4111C123.314 41.4344 123.729 41.3458 124.098 41.1549C124.468 40.9639 124.778 40.6777 124.995 40.3268C125.487 39.5213 125.43 38.4721 124.853 37.5896L123.004 34.7879C122.602 34.1757 121.996 33.7206 121.29 33.5005C121.41 32.8202 121.257 32.1205 120.863 31.5491L119.331 29.2266C118.926 28.6167 118.317 28.1668 117.609 27.956C117.675 27.6207 117.673 27.2758 117.604 26.9412C117.534 26.6066 117.398 26.2888 117.204 26.006L116.152 24.4147C115.918 24.0608 115.611 23.7591 115.252 23.529C114.892 23.2988 114.488 23.1453 114.065 23.0783C112.76 22.8915 111.456 22.7182 110.152 22.5585C90.8586 2.98179 59.9782 -2.34141 34.5471 11.4569C18.1821 20.334 7.39287 35.3216 3.51025 51.951C2.48521 52.8237 1.70895 53.5297 1.18435 54.02C0.702363 54.4788 0.423879 55.1067 0.409541 55.7669L0.352687 58.3024C0.333795 58.9131 0.547272 59.5087 0.951211 59.9722C0.530903 60.4279 0.29206 61.018 0.278757 61.6336L0.206249 64.8808C0.185394 65.501 0.40037 66.1065 0.809043 66.5786C0.385011 67.0403 0.143787 67.637 0.129473 68.2596L0.00292344 73.9022C-0.0203977 74.3769 0.0962036 74.8481 0.33863 75.259C0.581057 75.6699 0.938966 76.0029 1.36918 76.2178C1.67235 76.3658 2.00611 76.443 2.34447 76.4433C2.49742 76.4424 2.64987 76.426 2.7994 76.3943C3.99183 83.2053 6.33044 89.7722 9.71874 95.824C26.5074 125.879 64.8446 136.832 95.3468 120.29C124.018 104.744 135.559 70.4351 122.898 41.4111Z" fill="#0A0A3C"/>
<path d="M89.6914 3.49163C90.6169 3.79421 91.5296 3.98333 92.4608 4.21446C94.8777 4.82663 97.249 5.34494 99.5493 6.24849C104.773 8.34134 108.743 12.7554 110.857 17.9007C110.942 18.1041 111.096 18.2726 111.292 18.378C111.487 18.4835 111.714 18.5196 111.934 18.4803C112.153 18.4409 112.353 18.3285 112.498 18.1619C112.644 17.9952 112.727 17.7843 112.734 17.5645C112.844 10.6331 108.018 4.18224 101.67 1.438C100.374 0.85372 99.0084 0.430232 97.6059 0.177239C94.8222 -0.269629 91.7983 0.0931884 89.4312 1.67054C89.275 1.78097 89.1524 1.93143 89.0767 2.10561C89.0011 2.27979 88.9753 2.47104 89.0021 2.65864C89.0289 2.84624 89.1073 3.02304 89.2288 3.16987C89.3503 3.31671 89.5103 3.42798 89.6914 3.49163Z" fill="#0A0A3C"/>
<path d="M40.2169 30.7255C41.2832 26.4403 43.7484 22.4703 47.2472 19.7163C49.6825 17.8812 52.7704 16.7003 55.8611 17.0182C56.0767 17.0461 56.2797 17.1336 56.4467 17.2708C56.6136 17.4079 56.7377 17.589 56.8043 17.7928C56.8708 17.9967 56.8772 18.215 56.8228 18.4224C56.7683 18.6297 56.6552 18.8176 56.4966 18.964C54.5986 20.8033 52.4988 22.4871 50.6435 24.3208C49.3639 25.4946 48.2269 26.8109 47.2556 28.2432C54.2627 25.9902 61.4401 24.2884 68.7203 23.1539C72.9939 22.4843 77.3158 22.0085 81.686 21.7265C78.8981 19.8003 78.0224 17.3544 79.4938 16.018C80.9027 14.7391 84.1285 14.9058 86.9548 16.1581C89.71 17.3783 91.9307 19.5608 92.0132 21.4183C95.7522 21.4351 99.5121 21.5897 103.293 21.882C90.7635 11.3028 73.898 6.04125 56.68 8.47871C56.6473 8.97321 54.5475 9.91458 51.2449 10.7201C47.9423 11.5255 45.6378 11.6418 45.3762 11.2188C27.8468 17.2998 14.8 30.9874 9.18292 47.4907C14.8697 43.319 23.2576 37.9874 34.1875 33.2022C36.1779 32.3271 38.1877 31.5015 40.2169 30.7255ZM29.196 34.194C25.919 37.7563 22.1942 38.3503 21.1692 36.1551C20.3702 34.4391 21.5289 31.4693 23.6088 29.207C25.6887 26.9446 28.5776 25.5185 30.3888 26.1335C32.7147 26.9194 32.4801 30.6316 29.2017 34.194H29.196Z" fill="#FFD639"/>
<path d="M122.106 52.0475C121.167 48.2658 119.844 44.5866 118.16 41.0649C112.814 40.7409 107.475 40.6652 102.143 40.838C106.303 46.2284 107.608 54.0185 107.471 60.5772C107.259 67.6039 105.309 75.8632 100.12 80.9833C98.9545 82.1418 97.5478 83.037 95.9969 83.6071C95.6444 84.6727 95.1496 85.6875 94.5254 86.6245C94.4088 86.7996 94.2411 87.0686 94.1074 87.2311C93.3016 88.3028 92.3632 89.2713 91.3138 90.114C91.1219 90.2709 90.6371 90.6085 90.4324 90.7626L89.8168 91.1534L89.5083 91.3481L89.187 91.5218C88.5506 91.881 87.8849 92.187 87.1966 92.4366C86.7379 92.6077 86.2699 92.7536 85.7948 92.8736C85.5887 92.9409 85.2844 92.9773 85.0726 93.0221C84.589 93.1105 84.1005 93.1708 83.6097 93.2028C83.4652 93.2168 83.3199 93.1846 83.1954 93.1109C83.0709 93.0373 82.9738 92.9262 82.9183 92.7939C82.8629 92.6617 82.852 92.5154 82.8874 92.3766C82.9228 92.2379 83.0026 92.114 83.115 92.0233C83.2245 91.9402 83.3555 91.8893 83.4931 91.8762C84.7802 91.6915 86.0271 91.2967 87.1824 90.7079C87.5726 90.5162 87.9522 90.3044 88.3198 90.0734L88.5969 89.9053L88.8628 89.7175C90.1081 88.8619 91.2092 87.8186 92.1256 86.6259C92.7143 85.8524 93.2082 85.0131 93.5971 84.1254C93.7978 83.664 93.9595 83.187 94.0804 82.6993C94.1996 82.2268 94.2729 81.7441 94.2994 81.2579C94.2994 81.1612 94.3108 81.0646 94.3108 80.9665C94.3278 79.2953 93.6326 78.0065 92.5052 77.2038C91.6166 76.5721 90.4608 76.2415 89.1728 76.2653C88.9004 76.264 88.6282 76.2808 88.3581 76.3157C88.1193 76.3437 87.8819 76.3773 87.6473 76.4081C87.1708 76.5018 86.7 76.6215 86.237 76.7668C85.9043 76.8704 85.5744 76.9881 85.2503 77.1226C85.1565 77.1562 84.9972 77.2276 84.8352 77.3047L84.3845 77.5162C84.1073 77.6563 83.8158 77.8104 83.5457 77.9715C83.4533 78.0247 83.3609 78.0808 83.2728 78.1368C82.5446 78.5869 81.8539 79.0933 81.207 79.6511C81.0577 79.7912 80.6526 80.1708 80.5062 80.3095C79.9774 80.8395 79.4915 81.4095 79.0532 82.0143C78.4218 82.8759 77.9071 83.8149 77.522 84.8076C77.4804 84.9357 77.4012 85.0487 77.2945 85.1326C77.1846 85.219 77.0501 85.2693 76.9097 85.2765C76.7693 85.2838 76.6301 85.2476 76.5116 85.173C76.3932 85.0984 76.3013 84.9892 76.249 84.8606C76.1966 84.732 76.1865 84.5906 76.2198 84.456L76.3961 83.7472C76.4929 83.3945 76.6097 83.0475 76.7458 82.7077C76.787 82.5923 76.8345 82.4792 76.888 82.3687C77.0861 81.9236 77.3092 81.4896 77.5562 81.0688C77.6723 80.8539 77.8014 80.6462 77.9428 80.4468C78.2131 80.0409 78.5045 79.6491 78.8158 79.2729C79.8572 78.0146 81.0994 76.9316 82.4937 76.0663C82.171 75.4107 81.8767 74.7425 81.6122 74.0715C78.9878 67.1808 78.7959 59.5294 80.391 52.3837C81.2113 48.9236 82.5235 45.3193 84.6105 42.3173C82.5064 42.6049 80.4095 42.9318 78.3196 43.2979C75.6231 43.7704 72.9343 44.3097 70.253 44.9158C70.3951 45.0559 70.5373 45.196 70.6695 45.3361C75.7165 50.791 77.4524 59.2268 77.4851 66.4131C77.4723 74.0421 75.3 83.9965 68.9109 88.9289C65.9168 91.1828 62.1436 91.7306 58.7472 89.9781C52.9837 86.9943 50.1901 79.5334 49.2106 73.5883C48.0035 66.2563 48.7713 56.8776 52.6226 49.8874C49.3233 51.0081 46.0568 52.2273 42.823 53.545C39.7763 54.789 36.8817 56.0665 34.1421 57.3637C36.2349 58.5824 37.6651 60.9275 37.4447 63.8748C37.0865 68.6699 32.6423 71.2601 28.663 70.0175C25.5566 69.0481 23.687 65.9369 23.9102 62.8914C23.9174 62.7948 23.9273 62.6981 23.9387 62.6015C17.9466 65.9161 12.1871 69.6236 6.69934 73.6989C6.98077 75.7111 7.36749 77.7076 7.858 79.6805C12.0221 96.3996 23.1582 109.626 37.4703 117.097C37.8002 116.722 40.0564 117.175 43.1983 118.44C46.3402 119.705 48.2979 120.951 48.2425 121.441C58.2497 124.361 68.8647 124.607 79.0003 122.154C89.1359 119.702 98.4279 114.639 105.925 107.484C105.64 107.075 106.778 105.093 108.987 102.524C111.196 99.9549 112.968 98.5387 113.434 98.7222C122.611 85.5711 126.269 68.7666 122.106 52.0475ZM22.5881 97.0257C20.6845 97.2443 18.1809 95.2425 16.6341 92.5935C15.0873 89.9445 14.6096 86.7982 15.764 85.2909C17.2426 83.3591 20.7513 84.7306 23.1781 88.8995C25.6049 93.0684 25.0291 96.7456 22.5881 97.0257ZM65.5017 98.8706C63.227 100.788 59.7623 101.567 59.7623 101.567C58.2596 105.11 59.5334 106.218 60.5414 110.295C60.5928 110.491 60.6252 110.693 60.6381 110.895C60.7732 113.599 57.2161 114.105 55.2471 114.206C52.8146 114.329 50.3451 114.22 48.0036 113.558C43.312 112.233 39.2304 108.143 39.111 103.143C39.02 99.3427 40.8496 95.6879 42.9665 92.6159C43.7518 91.4819 44.6034 90.394 45.517 89.3575C44.421 89.5817 43.3783 90.0096 42.4448 90.6183C42.4132 90.6392 42.3799 90.6574 42.3453 90.6729L42.0083 90.7598C41.8845 90.791 41.754 90.7851 41.6336 90.743C41.5131 90.701 41.4081 90.6245 41.3319 90.5234C41.2556 90.4223 41.2116 90.3012 41.2055 90.1754C41.1994 90.0496 41.2314 89.9248 41.2975 89.817C42.7263 87.4258 45.9663 86.3149 48.6149 87.2619C49.4654 87.5525 50.2369 88.0318 50.8697 88.6627C50.9718 88.7739 51.035 88.9144 51.0499 89.0636C51.0649 89.2128 51.0309 89.3628 50.953 89.4915C50.875 89.6203 50.7571 89.721 50.6167 89.7788C50.4763 89.8366 50.3208 89.8485 50.173 89.8128C49.2305 89.5859 48.4429 89.3827 47.5572 89.2889C47.4889 89.2805 47.415 89.2763 47.3539 89.2693C51.8294 101.651 61.2693 99.6355 65.0994 98.2052C65.1866 98.1754 65.2816 98.1761 65.3684 98.2072C65.4552 98.2383 65.5286 98.2978 65.5761 98.3759C65.6236 98.4539 65.6425 98.5457 65.6294 98.6358C65.6164 98.7259 65.5723 98.8088 65.5046 98.8706H65.5017ZM81.78 114.511C81.4033 116.362 78.6949 118.096 75.6668 118.721C72.6386 119.345 69.4468 118.827 68.3493 117.279C66.9418 115.297 69.3445 112.431 74.1228 111.447C78.9011 110.464 82.2662 112.139 81.7829 114.511H81.78ZM119.121 71.4828C118.786 74.5184 117.301 77.3439 115.47 77.8945C113.121 78.5949 111.098 75.4626 111.624 70.6815C112.15 65.9004 114.81 63.2571 116.95 64.4478C118.622 65.3695 119.458 68.443 119.121 71.4828Z" fill="#FFD639"/>
<path d="M35.0562 35.1267C22.662 40.5452 13.6186 46.6669 8.12804 50.9338C5.58037 52.9132 3.79901 54.4934 2.80383 55.4165L2.66166 55.5482C2.59288 55.6186 2.55419 55.7124 2.55361 55.8102L2.52234 57.1774L2.49672 58.3457C2.48851 58.399 2.49563 58.4535 2.51724 58.503C2.53885 58.5525 2.5741 58.5951 2.619 58.6258C2.63748 58.6356 2.6574 58.6427 2.70147 58.616C3.41421 58.0884 4.15157 57.5514 4.91359 57.0051C5.61306 56.5008 6.34098 55.9829 7.09731 55.4515C14.9251 49.9644 25.7882 43.2012 39.7478 37.546C39.5859 36.0921 39.594 34.6246 39.7719 33.1726C38.1872 33.7945 36.6153 34.4459 35.0562 35.1267ZM115.404 27.1559L114.355 25.566C114.287 25.4629 114.199 25.3745 114.095 25.3061C113.991 25.2377 113.875 25.1908 113.752 25.1681L112.417 24.979C110.244 24.6821 108.075 24.4304 105.91 24.224C101.025 23.757 96.1702 23.5236 91.345 23.5236H90.6839C89.0537 23.532 87.4278 23.5656 85.8061 23.6244C80.1951 23.8314 74.6017 24.3689 69.0558 25.234C66.0172 25.7084 63.0013 26.2832 60.0082 26.9584C56.961 27.643 53.9442 28.4288 50.9577 29.316C49.1948 29.84 47.4414 30.4003 45.6975 30.997C44.9748 32.549 44.4408 34.1797 44.1066 35.8552C45.9956 35.1566 47.8911 34.4963 49.7934 33.8744C54.2233 32.4315 58.6978 31.1997 63.2169 30.179C70.8477 28.4537 78.6057 27.3295 86.4175 26.8169C93.789 26.2974 101.19 26.333 108.556 26.9234C110.532 27.0822 112.526 27.2815 114.538 27.5216L115.215 27.6056H115.222C115.35 27.6196 115.454 27.5986 115.484 27.5496C115.514 27.5005 115.524 27.3381 115.404 27.1559Z" fill="white"/>
<path d="M31.128 56.4475C34.5045 54.7987 38.127 53.1626 41.9912 51.5838C46.0932 49.9093 50.2493 48.3936 54.4594 47.0367C54.9873 46.3433 55.562 45.6858 56.1796 45.0685C59.2461 42.0497 63.5183 40.8141 67.4948 42.9084C67.6924 43.0107 67.8872 43.1213 68.0791 43.2362C71.3509 42.4648 74.6364 41.7891 77.9357 41.2092C80.7999 40.7077 83.6778 40.2795 86.5695 39.9246C87.2207 39.2571 87.9305 38.6477 88.6907 38.1035C91.598 36.1031 95.1949 35.6997 98.3283 37.4563C99.0106 37.8321 99.6502 38.2787 100.236 38.7885C105.478 38.5644 110.735 38.577 116.006 38.8264C117.966 38.9197 119.926 39.0463 121.887 39.206C122.231 39.234 122.577 39.2606 122.922 39.2914C122.979 39.2914 123.115 39.2998 123.158 39.2326C123.201 39.1654 123.196 38.9524 123.05 38.7353L121.202 35.9336C121.125 35.8154 121.024 35.7144 120.905 35.6369C120.787 35.5595 120.653 35.5074 120.512 35.4839L119.895 35.4209C117.68 35.193 115.488 35.0109 113.319 34.8746C63.3108 31.7353 25.1612 52.3221 7.15417 64.6186C6.51536 65.0538 5.9031 65.4783 5.31737 65.892L5.26475 65.9298C5.15528 66.0055 5.04868 66.0825 4.94063 66.1582L4.77712 66.2744L4.56244 66.4271L4.32646 66.5952L4.17006 66.7073L3.90564 66.8978C3.38815 67.2714 2.89338 67.6333 2.42138 67.9835C2.37472 68.026 2.33789 68.0779 2.31336 68.1356C2.28883 68.1934 2.27718 68.2557 2.27921 68.3183L2.1982 71.9604L2.15269 73.9679C2.14262 74.0389 2.15285 74.1112 2.18223 74.1768C2.21162 74.2424 2.25898 74.2986 2.31902 74.3391C2.34461 74.3517 2.36594 74.3629 2.43134 74.3111L2.47257 74.2774C3.56869 73.4033 4.88943 72.3905 6.40779 71.2726C12.3346 66.9515 18.5601 63.043 25.039 59.5756C26.9697 58.5343 28.9993 57.4916 31.128 56.4475Z" fill="white"/>
<path d="M40.1942 39.9975C40.1856 39.9652 40.18 39.9316 40.1715 39.8994C28.6539 44.629 17.7098 50.6143 7.54375 57.7433C7.06512 58.0777 6.5955 58.4101 6.13487 58.7407C5.39275 59.2712 4.67482 59.7946 3.98103 60.3111C3.49482 60.6711 3.01855 61.0269 2.55935 61.3771C2.51625 61.4151 2.48197 61.4618 2.4589 61.514C2.43583 61.5662 2.4245 61.6227 2.42568 61.6797L2.35175 64.9282C2.34387 64.9886 2.35299 65.0499 2.37806 65.1054C2.40313 65.161 2.44319 65.2088 2.49392 65.2434C2.51809 65.256 2.53657 65.2658 2.59628 65.2224L2.67305 65.1678L2.85219 65.0389L3.10952 64.854L3.24173 64.7587L3.57442 64.522L3.62842 64.4842C4.82406 63.6437 6.11356 62.7457 7.49686 61.8226C18.2443 54.6813 29.7514 48.7184 41.8135 44.0403L41.805 44.0277C41.0876 42.7613 40.5458 41.4058 40.1942 39.9975ZM119.062 32.6991L117.53 30.3779C117.459 30.2683 117.365 30.1745 117.256 30.1022C117.146 30.0298 117.023 29.9806 116.893 29.9576C116.706 29.931 116.52 29.9072 116.334 29.882C115.875 29.8203 115.417 29.761 114.958 29.7041C113.488 29.5173 112.026 29.3567 110.573 29.2222C105.87 28.7767 101.268 28.5666 96.783 28.5666C93.3226 28.5666 89.9281 28.6866 86.5994 28.9266C78.9198 29.4712 71.2966 30.6198 63.8027 32.3615C59.1879 33.4303 54.7508 34.6883 50.5042 36.0877C48.1897 36.8498 45.9326 37.652 43.7328 38.4944C43.5936 40.0926 43.6046 41.7001 43.7655 43.2964C44.1398 43.1564 44.5157 43.0163 44.8929 42.8762C48.2566 41.6425 51.636 40.5172 55.0309 39.5002C57.2763 38.8296 59.5273 38.2053 61.7839 37.6272C78.2168 33.4057 95.2178 31.7387 112.173 32.6865C114.296 32.806 116.42 32.9657 118.545 33.1656L118.924 33.2006C118.97 33.2006 119.12 33.2146 119.163 33.1445C119.206 33.0745 119.196 32.9008 119.062 32.6991Z" fill="#2D93AD"/>
<path d="M66.626 44.6709C66.0651 44.3826 65.4687 44.167 64.8518 44.0293C63.0164 43.63 61.0232 43.9984 58.9888 45.4931C58.8907 45.5702 58.794 45.6472 58.6974 45.7271C58.1129 46.2114 57.5703 46.7428 57.0752 47.3156C56.6726 47.7809 56.2976 48.2688 55.9521 48.7767C54.5304 50.8584 53.5352 53.2734 52.8244 55.6633C50.6179 63.2978 50.8766 72.4271 53.9247 79.8012C56.4695 86.0419 62.3056 91.613 68.5368 85.7071C73.463 80.7257 75.1206 73.1724 75.3509 66.3755C75.4405 60.527 74.4766 54.4361 71.3831 49.3637C70.4206 47.8059 69.2349 46.4345 67.8942 45.4525C67.4937 45.1586 67.0695 44.8972 66.626 44.6709ZM69.0301 67.7959L63.2126 71.1047L69.0202 74.4079C68.1188 78.9452 65.4248 82.2386 62.243 82.2386C58.322 82.2386 55.1431 77.2404 55.1431 71.0753C55.1431 64.9102 58.322 59.9134 62.243 59.9134C65.4376 59.9134 68.1387 63.232 69.0301 67.7959Z" fill="white"/>
<path d="M96.3321 79.4145C96.3922 79.7451 96.4306 80.0792 96.4472 80.4147C98.7987 79.0699 100.817 76.4924 102.125 73.7229C104.13 69.638 105.071 65.0377 105.296 60.5031C105.509 54.8479 104.694 48.9252 101.797 43.9732C101.162 42.863 100.375 41.8448 99.4569 40.9474C99.0821 40.5842 98.6801 40.2494 98.2542 39.9458C97.7176 39.5613 97.1357 39.2424 96.5212 38.996C94.7867 38.3124 92.8532 38.3264 90.8643 39.4541C90.8074 39.4863 90.7505 39.5171 90.6951 39.5522C90.1485 39.886 89.6328 40.2666 89.154 40.6896C88.7296 41.0621 88.3311 41.4622 87.9612 41.8874C86.7798 43.2406 85.85 44.8291 85.068 46.4877C81.4754 54.1083 80.9451 66.5282 85.095 74.7847C85.4334 74.6601 85.7775 74.5466 86.1258 74.4485C86.3277 74.3911 86.531 74.3421 86.7357 74.2972C85.6424 72.4019 84.9671 69.8075 84.9671 66.9442C84.9671 61.1405 87.7365 56.4379 91.1528 56.4379C93.9322 56.4379 96.2837 59.552 97.0628 63.8386L92.1722 66.6206L97.1595 69.4573C96.7685 72.1595 95.7634 74.4513 94.4085 75.8788C95.344 76.7347 96.0307 77.9044 96.3321 79.4145Z" fill="white"/>
<path d="M0.197937 74.9752C0.197937 74.9752 1.33529 77.6368 5.31601 78.3372V75.9403" fill="#0A0A3C"/>
<path d="M125.234 39.7986C125.234 39.7986 124.796 42.1493 122.562 43.3007C120.329 44.4522 121.283 40.754 121.283 40.754" fill="#0A0A3C"/>
<path d="M201.333 27.3912C196.892 27.3912 193.294 30.94 193.294 35.3194C193.294 39.6989 196.892 43.2477 201.333 43.2477C205.773 43.2477 209.372 39.6989 209.372 35.3194C209.372 30.94 205.773 27.3912 201.333 27.3912ZM193.96 47.6422L194.986 90.3718H208.996L207.542 46.6531L193.96 47.6422ZM494.953 40.8617L474.657 88.8843L488.461 94.0717L491.316 86.521L510.893 85.9773L513.266 93.9509L526.894 90.402L508.596 40.4917L494.953 40.8692V40.8617ZM496.568 72.4766L502.219 57.3676L506.72 72.1897L496.576 72.469L496.568 72.4766ZM591.596 53.9244C586.941 53.6375 587.531 48.0877 591.459 47.4837C596.657 46.6455 601.741 48.7824 605.002 52.4218L612 42.5153C612 42.5153 598.962 29.377 583.113 38.0679C572.027 44.1387 574.63 56.4539 578.55 60.4785C584.583 66.6852 590.678 64.7748 594.322 65.4771C597.124 66.0509 597.989 68.822 597.415 70.5889C596.259 74.689 592.638 74.7041 588.978 74.0698C584.951 73.4506 579.569 69.5545 579.569 69.5545L572.793 81.2807C572.793 81.2807 581.582 91.5497 597.737 87.7668C606.388 85.6753 612.758 79.2345 611.165 67.8631C609.42 55.6083 599.207 54.3171 591.596 53.932V53.9244ZM313.617 37.7734L304.56 25.8055L281.362 48.0575L282.671 31.3327L268.798 30.857L264.496 83.0627L279.31 84.3161L280.153 69.7432L283.774 65.8621L298.749 87.7819L311.305 77.2562L294.676 56.2652L313.617 37.7734ZM148.008 35.7045L153.972 104.069L169.858 102.71L165.938 68.3463C165.938 68.3463 192.911 70.7852 189.672 44.5238C186.426 18.1944 152.854 28.0707 148 35.7045H148.008ZM164.621 55.797L163.075 41.4959C165.846 39.5629 176.81 36.15 178.089 47.4308C179.367 58.7116 164.621 55.797 164.621 55.797ZM237.837 76.1236C221.897 76.1236 222.609 50.957 237.477 50.957C242.553 50.957 247.553 53.2826 250.768 58.4322L261.992 51.8782C261.992 51.8782 254.627 33.8319 233.756 37.713C212.886 41.5186 211.531 61.3997 213.743 70.7022C215.458 78.2453 223.535 90.3718 239.835 90.3718C256.135 90.3718 262.138 72.6049 262.138 72.6049L250.776 68.2331C250.776 68.2331 246.772 76.1311 237.837 76.1311V76.1236ZM560.191 32.7748C552.504 26.3039 538.539 23.7819 524.682 32.5634L528.05 81.9377C528.05 81.9377 560.16 88.0688 568.061 70.3397C575.901 52.6861 568.176 39.4346 560.183 32.7673L560.191 32.7748ZM557.144 61.9358C553.254 70.6493 540.89 67.5837 540.89 67.5837L538.807 41.511C545.269 39.8801 550.07 39.7895 554.656 44.2369C559.31 48.6842 559.755 56.0009 557.144 61.9358ZM460.133 67.7951L460.332 60.1613L478.844 60.3652L480.468 49.3336L460.944 46.3435L461.212 40.9145L481.769 43.6554L485.138 30.3133L448.297 26.6738L445.234 80.1406L473.615 82.4209L474.97 69.0939L460.133 67.7951ZM423.483 24.1897L423.751 58.5606L408.691 59.7687L407.903 24.5294L390.914 25.7678L393.257 96.2991L408.485 96.6465L408.799 72.4237L423.889 72.5672L424.693 95.4082L439.791 96.1632L437.922 24.0688L423.483 24.1746V24.1897ZM363.061 71.948L362.142 64.3671L380.494 61.9358V50.7833L360.978 53.0486L360.205 45.1807L381.145 42.9683L382.324 31.2949L345.337 32.9259L350.114 86.2718L386.389 83.1231L385.784 69.7432L363.061 71.948ZM329.695 79.9292L326.702 41.2694L312.852 43.1495L315.976 94.5851L345.398 92.9391L344.533 78.6531L329.695 79.9367V79.9292Z" fill="#0A0A3C"/>
<path fill-rule="evenodd" clip-rule="evenodd" d="M621.11 41.2888V48.6689H623.03V46.1888H624.258L625.4 48.6689H627.5L626.103 45.8339C626.437 45.6457 626.709 45.3906 626.92 45.0688C627.16 44.7022 627.28 44.2588 627.28 43.7388C627.28 43.2188 627.163 42.7788 626.93 42.4188C626.703 42.0522 626.393 41.7722 626 41.5788C625.613 41.3855 625.187 41.2888 624.72 41.2888H621.11ZM623.03 44.7988H624.23C624.51 44.7988 624.75 44.7089 624.95 44.5289C625.157 44.3488 625.26 44.0822 625.26 43.7288C625.26 43.3622 625.157 43.1022 624.95 42.9489C624.75 42.7888 624.513 42.7088 624.24 42.7088H623.03V44.7988Z" fill="#0A0A3C"/>
<path fill-rule="evenodd" clip-rule="evenodd" d="M620.89 52.4489C621.857 52.8622 622.893 53.0688 624 53.0688C625.107 53.0688 626.143 52.8622 627.11 52.4489C628.077 52.0355 628.927 51.4622 629.66 50.7288C630.393 49.9955 630.967 49.1455 631.38 48.1788C631.793 47.2122 632 46.1755 632 45.0688C632 43.9622 631.793 42.9255 631.38 41.9589C630.967 40.9922 630.393 40.1422 629.66 39.4088C628.927 38.6755 628.077 38.1022 627.11 37.6888C626.143 37.2755 625.107 37.0688 624 37.0688C622.893 37.0688 621.857 37.2755 620.89 37.6888C619.923 38.1022 619.073 38.6755 618.34 39.4088C617.607 40.1422 617.033 40.9922 616.62 41.9589C616.207 42.9255 616 43.9622 616 45.0688C616 46.1755 616.207 47.2122 616.62 48.1788C617.033 49.1455 617.607 49.9955 618.34 50.7288C619.073 51.4622 619.923 52.0355 620.89 52.4489ZM626.97 50.1688C626.083 50.6955 625.093 50.9588 624 50.9588C622.92 50.9588 621.933 50.6955 621.04 50.1688C620.147 49.6355 619.437 48.9255 618.91 48.0388C618.383 47.1455 618.12 46.1555 618.12 45.0688C618.12 43.9822 618.383 42.9955 618.91 42.1089C619.437 41.2155 620.147 40.5055 621.04 39.9789C621.933 39.4455 622.92 39.1788 624 39.1788C625.087 39.1788 626.073 39.4455 626.96 39.9789C627.853 40.5055 628.563 41.2155 629.09 42.1089C629.623 42.9955 629.89 43.9822 629.89 45.0688C629.89 46.1555 629.627 47.1455 629.1 48.0388C628.573 48.9255 627.863 49.6355 626.97 50.1688Z" fill="#0A0A3C"/>
</svg>
